<svg width="24" height="24" viewBox="0 0 24 24" fill="none" xmlns="http://www.w3.org/2000/svg">
<path d="M0 12C0 5.37258 5.37258 0 12 0V0C18.6274 0 24 5.37258 24 12V12C24 18.6274 18.6274 24 12 24V24C5.37258 24 0 18.6274 0 12V12Z" fill="#FF6643"/>
<path d="M12.6935 11.9994L16.2092 7.80875C16.2681 7.7391 16.2185 7.6333 16.1275 7.6333H15.0587C14.9958 7.6333 14.9355 7.66143 14.894 7.70964L11.9944 11.1663L9.09488 7.70964C9.0547 7.66143 8.99444 7.6333 8.93015 7.6333H7.8614C7.77033 7.6333 7.72078 7.7391 7.7797 7.80875L11.2953 11.9994L7.7797 16.19C7.7665 16.2055 7.75803 16.2245 7.7553 16.2447C7.75257 16.2649 7.75569 16.2854 7.76429 16.3039C7.7729 16.3224 7.78662 16.338 7.80383 16.3489C7.82104 16.3598 7.84102 16.3656 7.8614 16.3654H8.93015C8.9931 16.3654 9.05336 16.3373 9.09488 16.2891L11.9944 12.8324L14.894 16.2891C14.9342 16.3373 14.9944 16.3654 15.0587 16.3654H16.1275C16.2185 16.3654 16.2681 16.2596 16.2092 16.19L12.6935 11.9994Z" fill="white"/>
</svg>
