<svg width="24" height="24" viewBox="0 0 24 24" fill="none" xmlns="http://www.w3.org/2000/svg">
<path d="M0 12C0 5.37258 5.37258 0 12 0V0C18.6274 0 24 5.37258 24 12V12C24 18.6274 18.6274 24 12 24V24C5.37258 24 0 18.6274 0 12V12Z" fill="#237FCF"/>
<path d="M11.1431 8.14328C11.1431 8.3706 11.2334 8.58862 11.3941 8.74937C11.5549 8.91011 11.7729 9.00042 12.0002 9.00042C12.2275 9.00042 12.4456 8.91011 12.6063 8.74937C12.767 8.58862 12.8574 8.3706 12.8574 8.14328C12.8574 7.91595 12.767 7.69793 12.6063 7.53718C12.4456 7.37644 12.2275 7.28613 12.0002 7.28613C11.7729 7.28613 11.5549 7.37644 11.3941 7.53718C11.2334 7.69793 11.1431 7.91595 11.1431 8.14328ZM12.4288 10.3933H11.5716C11.5127 10.3933 11.4645 10.4415 11.4645 10.5004V16.7147C11.4645 16.7736 11.5127 16.8218 11.5716 16.8218H12.4288C12.4877 16.8218 12.5359 16.7736 12.5359 16.7147V10.5004C12.5359 10.4415 12.4877 10.3933 12.4288 10.3933Z" fill="white"/>
</svg>
