<svg width="24" height="24" viewBox="0 0 24 24" fill="none" xmlns="http://www.w3.org/2000/svg">
<path d="M0 12C0 5.37258 5.37258 0 12 0V0C18.6274 0 24 5.37258 24 12V12C24 18.6274 18.6274 24 12 24V24C5.37258 24 0 18.6274 0 12V12Z" fill="#FFB966"/>
<path d="M11.1427 15.9105C11.1427 16.1378 11.233 16.3559 11.3938 16.5166C11.5545 16.6773 11.7725 16.7676 11.9998 16.7676C12.2272 16.7676 12.4452 16.6773 12.6059 16.5166C12.7667 16.3559 12.857 16.1378 12.857 15.9105C12.857 15.6832 12.7667 15.4652 12.6059 15.3044C12.4452 15.1437 12.2272 15.0534 11.9998 15.0534C11.7725 15.0534 11.5545 15.1437 11.3938 15.3044C11.233 15.4652 11.1427 15.6832 11.1427 15.9105ZM11.5713 13.6605H12.4284C12.4873 13.6605 12.5356 13.6123 12.5356 13.5534V7.33908C12.5356 7.28015 12.4873 7.23193 12.4284 7.23193H11.5713C11.5123 7.23193 11.4641 7.28015 11.4641 7.33908V13.5534C11.4641 13.6123 11.5123 13.6605 11.5713 13.6605Z" fill="white"/>
</svg>
