<svg width="32" height="32" viewBox="0 0 32 32" fill="none" xmlns="http://www.w3.org/2000/svg">
<path d="M0 16C0 7.16344 7.16344 0 16 0C24.8366 0 32 7.16344 32 16C32 24.8366 24.8366 32 16 32C7.16344 32 0 24.8366 0 16Z" fill="#FF6643"/>
<path d="M16 9C12.1344 9 9 12.1344 9 16C9 19.8656 12.1344 23 16 23C19.8656 23 23 19.8656 23 16C23 12.1344 19.8656 9 16 9ZM15.5 12.625C15.5 12.5563 15.5563 12.5 15.625 12.5H16.375C16.4437 12.5 16.5 12.5563 16.5 12.625V16.875C16.5 16.9437 16.4437 17 16.375 17H15.625C15.5563 17 15.5 16.9437 15.5 16.875V12.625ZM16 19.5C15.8037 19.496 15.6169 19.4152 15.4795 19.275C15.3421 19.1348 15.2652 18.9463 15.2652 18.75C15.2652 18.5537 15.3421 18.3652 15.4795 18.225C15.6169 18.0848 15.8037 18.004 16 18C16.1963 18.004 16.3831 18.0848 16.5205 18.225C16.6579 18.3652 16.7348 18.5537 16.7348 18.75C16.7348 18.9463 16.6579 19.1348 16.5205 19.275C16.3831 19.4152 16.1963 19.496 16 19.5Z" fill="white"/>
</svg>
