<svg width="32" height="32" viewBox="0 0 32 32" fill="none" xmlns="http://www.w3.org/2000/svg">
<path d="M0 16C0 7.16344 7.16344 0 16 0C24.8366 0 32 7.16344 32 16C32 24.8366 24.8366 32 16 32C7.16344 32 0 24.8366 0 16Z" fill="#237FCF"/>
<path d="M16 9C12.1344 9 9 12.1344 9 16C9 19.8656 12.1344 23 16 23C19.8656 23 23 19.8656 23 16C23 12.1344 19.8656 9 16 9ZM16.5 19.375C16.5 19.4438 16.4437 19.5 16.375 19.5H15.625C15.5563 19.5 15.5 19.4438 15.5 19.375V15.125C15.5 15.0563 15.5563 15 15.625 15H16.375C16.4437 15 16.5 15.0563 16.5 15.125V19.375ZM16 14C15.8037 13.996 15.6169 13.9152 15.4795 13.775C15.3421 13.6348 15.2652 13.4463 15.2652 13.25C15.2652 13.0537 15.3421 12.8652 15.4795 12.725C15.6169 12.5848 15.8037 12.504 16 12.5C16.1963 12.504 16.3831 12.5848 16.5205 12.725C16.6579 12.8652 16.7348 13.0537 16.7348 13.25C16.7348 13.4463 16.6579 13.6348 16.5205 13.775C16.3831 13.9152 16.1963 13.996 16 14Z" fill="white"/>
</svg>
