<svg width="32" height="32" viewBox="0 0 32 32" fill="none" xmlns="http://www.w3.org/2000/svg">
<path d="M0 16C0 7.16344 7.16344 0 16 0C24.8366 0 32 7.16344 32 16C32 24.8366 24.8366 32 16 32C7.16344 32 0 24.8366 0 16Z" fill="#FFB966"/>
<path d="M22.9328 21.375L16.4328 10.125C16.3359 9.95781 16.1687 9.875 16 9.875C15.8312 9.875 15.6625 9.95781 15.5672 10.125L9.06716 21.375C8.87497 21.7094 9.11559 22.125 9.49997 22.125H22.5C22.8843 22.125 23.125 21.7094 22.9328 21.375ZM15.5 14.5C15.5 14.4313 15.5562 14.375 15.625 14.375H16.375C16.4437 14.375 16.5 14.4313 16.5 14.5V17.375C16.5 17.4437 16.4437 17.5 16.375 17.5H15.625C15.5562 17.5 15.5 17.4437 15.5 17.375V14.5ZM16 20C15.8037 19.996 15.6168 19.9152 15.4795 19.775C15.3421 19.6348 15.2651 19.4463 15.2651 19.25C15.2651 19.0537 15.3421 18.8652 15.4795 18.725C15.6168 18.5848 15.8037 18.504 16 18.5C16.1962 18.504 16.3831 18.5848 16.5205 18.725C16.6579 18.8652 16.7348 19.0537 16.7348 19.25C16.7348 19.4463 16.6579 19.6348 16.5205 19.775C16.3831 19.9152 16.1962 19.996 16 20Z" fill="white"/>
</svg>
